<svg xmlns="http://www.w3.org/2000/svg" xmlns:xlink="http://www.w3.org/1999/xlink" fill="none" version="1.1" width="660" height="200" viewBox="0 0 660 200"><defs><clipPath id="master_svg0_36_0630"><rect x="0" y="0" width="660" height="200" rx="0"/></clipPath></defs><g clip-path="url(#master_svg0_36_0630)"><g><path d="M111.81936,138.80576Q113.48661,141.22862,113.35011,143.37363Q113.21361,145.51619,111.65361,146.77394Q110.093613,148.03169,107.704857,148.03169L103.027298,148.03169Q99.992607,148.03169,97.728172,146.93726Q95.463737,145.84038,93.796486,143.32001L20.5886078,41.59581Q18.9213572,39.175369,18.8092322,37.032806Q18.6971073,34.88781,20.057231899999998,33.630058Q21.4173574,32.372307,23.708607999999998,32.372307L28.383732,32.372307Q31.520796,32.372307,34.231295,33.517937Q36.944233,34.663559,38.611483,37.084L111.81936,138.80576ZM35.959482,143.32001Q34.292232999999996,145.84038,32.027795999999995,146.93726Q29.763357,148.03169,26.72867,148.03169L22.151045,148.03169Q19.7354822,148.03169,18.1511073,146.77394Q16.56917,145.51619,16.4180446,143.37363Q16.2693572,141.22862,17.9366074,138.80576L91.144485,37.084Q92.811737,34.663559,95.522232,33.517937Q98.235168,32.372307,101.372231,32.372307L105.947418,32.372307Q108.263046,32.372307,109.647545,33.630058Q111.034485,34.88781,110.934547,37.032806Q110.83461,39.175369,109.167358,41.59581L35.959482,143.32001ZM224.43185,85.163681Q230.18924,85.163681,233.16786,88.242249Q236.14648,91.318375,235.24948,96.778374Q233.65781,113.42894,226.26486,125.36294Q218.87192,137.29694,206.87943,143.52231Q194.88692,149.74768,179.88167,149.74768Q163.81367,149.74768,150.43423,141.71368Q137.05479,133.67969,129.34253999999999,119.95169Q121.63029,106.22369,121.63029,90.124001Q121.63029,74.180313,129.32304,60.452309Q137.01823000000002,46.724312,150.36354,38.690308Q163.70886,30.656311,179.88167,30.656311Q192.21542,30.656311,202.86487,35.453308Q213.5143,40.247871,221.42642,48.883934Q223.92242,51.304375,223.58362,53.858871Q223.2448,56.410934,220.49774,58.309746L217.3826,60.48156Q214.86224,62.273125,212.49298,61.924561Q210.12373,61.575996,207.75204,59.360313Q202.14822,53.327499,195.30617,50.292809Q188.46411,47.255684,179.88167,47.255684Q168.11829,47.255684,158.91429,52.810745Q149.7103,58.363373,144.62323,68.098747Q139.5386,77.831688,139.5386,90.138626Q139.5386,102.57231,144.62323,112.30769Q149.7103,122.04063,158.85092,127.59569Q167.99399,133.14832,179.83536,133.14832Q191.79861,133.14832,200.50293,128.15631Q209.20967,123.16431,213.87262,113.93106Q218.53799,104.69537,218.53799,92.244629L218.53799,85.163681L224.43185,85.163681ZM222.09674,102.136L187.84012,102.136Q184.61285,102.136,182.88712,100.40294Q181.16135,98.669876,181.16135,95.42556L181.16135,91.874123Q181.16135,88.629807,182.88712,86.896744Q184.61285,85.163681,187.84012,85.163681L222.09674,85.163681L222.09674,102.136ZM337.91455,79.42337L362.50162,79.42337Q371.61053,79.42337,376.21255,75.27475Q380.81454,71.123688,380.81454,64.001312Q380.81454,59.391998,378.75485,56.147682Q376.6976,52.903374,372.62454,51.124001Q368.55392,49.34462,362.50162,49.34462L340.72253,49.34462L340.72253,32.372307L362.50162,32.372307Q372.50998,32.372307,380.69754,36.586746Q388.88754,40.798744,393.61871,48.021057Q398.34991,55.24337,398.34991,64.008621Q398.34991,72.807999,393.62115,79.640312Q388.89487,86.472626,380.75848,90.187378Q372.62454,93.899689,362.50162,93.899689L337.91455,93.899689L337.91455,79.42337ZM340.72253,131.05937L365.46561,131.05937Q371.82993,131.05937,376.75854,128.65601Q381.68961,126.25262,384.43423,122.026Q387.17886,117.79938,387.17886,112.73425Q387.17886,107.66913,384.43423,103.34256Q381.68961,99.015999,376.75854,96.459061Q371.82993,93.899689,365.46561,93.899689L339.84991,93.899689L339.84991,79.42337L365.46561,79.42337Q375.7616,79.42337,384.8096,83.791374Q393.8576,88.159378,399.28592,95.78875Q404.71423,103.41569,404.71423,112.744Q404.71423,122.07231,399.28592,130.216Q393.8576,138.35968,384.8096,143.19569Q375.7616,148.03169,365.46561,148.03169L340.72253,148.03169L340.72253,131.05937ZM337.30762,148.03169Q331.82324,148.03169,328.95673,145.16519Q326.09024,142.29869,326.09024,136.81432L326.09024,43.589684Q326.09024,38.105309,328.95673,35.238808Q331.82324,32.372307,337.30762,32.372307L343.62561,32.372307L343.62561,148.03169L337.30762,148.03169ZM437.31335,141.39682Q437.31335,144.58994,435.59003,146.31081Q433.86917,148.03169,430.67603,148.03169L427.1636,148.03169Q423.96805,148.03169,422.24716,146.31081Q420.52628,144.58994,420.52628,141.39682L420.52628,36.355186Q420.52628,33.162064,422.24716,31.441185Q423.96805,29.720306,427.1636,29.720306L430.67603,29.720306Q433.86917,29.720306,435.59003,31.441185Q437.31335,33.162064,437.31335,36.355186L437.31335,141.39682ZM497.15399,134.272Q504.79797,134.272,510.70892,130.73032Q516.62228,127.18863,519.85199,120.88769Q523.08167,114.58431,523.08167,106.63806Q523.08167,98.579681,519.86661,92.339691Q516.65399,86.099686,510.7406,82.575058Q504.82965,79.047997,497.11499,79.047997Q489.50998,79.047997,483.59662,82.575058Q477.68567,86.099686,474.45599,92.339691Q471.22629,98.579681,471.22629,106.63806Q471.22629,114.58431,474.51691,120.88769Q477.80997,127.18863,483.65997,130.73032Q489.50998,134.272,497.15399,134.272ZM497.15399,149.74768Q485.45398,149.74768,475.54797,143.89769Q465.64197,138.04768,459.85291,128.14169Q454.06628,118.23569,454.06628,106.66Q454.06628,94.928314,459.91629,85.022308Q465.7663,75.11631,475.6723,69.344315Q485.57831,63.572311,497.21246,63.572311Q508.84424,63.572311,518.76971,69.344315Q528.69769,75.11631,534.46967,85.022308Q540.2417,94.928314,540.2417,106.66Q540.2417,118.23569,534.45264,128.14169Q528.66595,138.04768,518.75998,143.89769Q508.85397,149.74768,497.15399,149.74768ZM595.05859,149.74768Q583.45367,149.74768,574.04492,143.96106Q564.63861,138.172,559.27124,128.25137Q553.90631,118.32831,553.90631,106.62831Q553.90631,94.991684,559.27124,85.085686Q564.63861,75.179688,574.04492,69.393059Q583.45367,63.603996,595.05859,63.603996Q606.6026,63.603996,615.08997,70.077995Q623.57733,76.552002,627.94537,86.521378Q632.31335,96.488312,632.31335,106.62831Q632.31335,116.83169,627.94537,126.81569Q623.57733,136.79968,615.08997,143.27368Q606.6026,149.74768,595.05859,149.74768ZM596.30658,134.64737Q604.29431,134.64737,610.40997,131.10568Q616.52563,127.564,619.89429,121.18506Q623.26538,114.80369,623.26538,106.62831Q623.26538,98.484619,619.89429,92.073997Q616.52563,85.663376,610.40997,82.121689Q604.29431,78.580002,596.30658,78.580002Q589.63031,78.580002,583.96796,82.185059Q578.30566,85.787689,575.0589,92.200745Q571.81458,98.611374,571.81458,106.62831Q571.81458,114.67937,575.0589,121.06075Q578.30566,127.43969,583.88995,131.04475Q589.4743,134.64737,596.30658,134.64737ZM557.90137,167.36349Q555.4809,165.01619,555.8197,162.62256Q556.15851,160.22894,558.80566,158.33012L561.78186,156.28506Q564.3266,154.51544,566.48621,154.88838Q568.64832,155.26375,571.01263,157.38681Q575.5318,162.42268,581.18677,164.89919Q586.84424,167.37569,595.09027,167.37569Q602.89026,167.37569,608.9743,164.05093Q615.05829,160.72862,618.47321,154.33263Q621.89062,147.93663,621.89062,139.13969L621.89062,119.04738L624.60596,106.504L621.89062,93.307373L621.89062,71.925621Q621.89062,68.681313,623.5871,66.98481Q625.28357,65.288307,628.52789,65.288307L632.04034,65.288307Q635.28467,65.288307,636.98114,66.98481Q638.67767,68.681313,638.67767,71.925621L638.67767,139.13969Q638.67767,151.86832,632.76428,161.99126Q626.85333,172.11662,616.83765,177.85693Q606.82196,183.59969,595.09027,183.59969Q582.99298,183.59969,573.828,179.24144Q564.66541,174.88562,557.90137,167.36349Z" fill="#3C4758" fill-opacity="1" style="mix-blend-mode:passthrough"/><path d="M299.83105,93.087997Q302.93643,93.087997,304.58905,94.740623Q306.24167,96.39325,306.24167,99.498627L306.24167,102.90137Q306.24167,106.00674,304.58905,107.65938Q302.93643,109.312,299.83105,109.312L256.42892,109.312Q253.32355,109.312,251.67093,107.65938Q250.0183,106.00674,250.0183,102.90137L250.0183,99.498627Q250.0183,96.39325,251.67093,94.740623Q253.32355,93.087997,256.42892,93.087997L299.83105,93.087997Z" fill="#3C4758" fill-opacity="0.5" style="mix-blend-mode:passthrough"/></g></g></svg>