<svg xmlns="http://www.w3.org/2000/svg" xmlns:xlink="http://www.w3.org/1999/xlink" fill="none" version="1.1" width="660" height="200" viewBox="0 0 660 200"><defs><clipPath id="master_svg0_36_2040"><rect x="0" y="0" width="660" height="200" rx="0"/></clipPath></defs><g clip-path="url(#master_svg0_36_2040)"><g><path d="M111.31936,138.80576Q112.98661,141.22862,112.85011,143.37363Q112.71361,145.51619,111.15361,146.77394Q109.593613,148.03169,107.204857,148.03169L102.527298,148.03169Q99.492607,148.03169,97.228172,146.93726Q94.963737,145.84038,93.296486,143.32001L20.0886078,41.59581Q18.4213572,39.175369,18.3092322,37.032806Q18.1971073,34.88781,19.557231899999998,33.630058Q20.9173574,32.372307,23.208607999999998,32.372307L27.883732,32.372307Q31.020796,32.372307,33.731295,33.517937Q36.444233,34.663559,38.111483,37.084L111.31936,138.80576ZM35.459482,143.32001Q33.792232999999996,145.84038,31.527796,146.93726Q29.263357,148.03169,26.22867,148.03169L21.651045,148.03169Q19.2354822,148.03169,17.6511073,146.77394Q16.06917,145.51619,15.9180446,143.37363Q15.7693572,141.22862,17.4366074,138.80576L90.644485,37.084Q92.311737,34.663559,95.022232,33.517937Q97.735168,32.372307,100.872231,32.372307L105.447418,32.372307Q107.763046,32.372307,109.147545,33.630058Q110.534485,34.88781,110.434547,37.032806Q110.33461,39.175369,108.667358,41.59581L35.459482,143.32001ZM299.33105,93.087997Q302.43643,93.087997,304.08905,94.740623Q305.74167,96.39325,305.74167,99.498627L305.74167,102.90137Q305.74167,106.00674,304.08905,107.65938Q302.43643,109.312,299.33105,109.312L255.92892,109.312Q252.82355,109.312,251.17093,107.65938Q249.5183,106.00674,249.5183,102.90137L249.5183,99.498627Q249.5183,96.39325,251.17093,94.740623Q252.82355,93.087997,255.92892,93.087997L299.33105,93.087997Z" fill="#FFFFFF" fill-opacity="0.5" style="mix-blend-mode:passthrough"/><path d="M223.93185,85.163681Q229.68924,85.163681,232.66786,88.242249Q235.64648,91.318375,234.74948,96.778374Q233.15781,113.42894,225.76486,125.36294Q218.37192,137.29694,206.37943,143.52231Q194.38692,149.74768,179.38167,149.74768Q163.31367,149.74768,149.93423,141.71368Q136.55479,133.67969,128.84253999999999,119.95169Q121.13029,106.22369,121.13029,90.124001Q121.13029,74.180313,128.82304,60.452309Q136.51823000000002,46.724312,149.86354,38.690308Q163.20886,30.656311,179.38167,30.656311Q191.71542,30.656311,202.36487,35.453308Q213.0143,40.247871,220.92642,48.883934Q223.42242,51.304375,223.08362,53.858871Q222.7448,56.410934,219.99774,58.309746L216.8826,60.48156Q214.36224,62.273125,211.99298,61.924561Q209.62373,61.575996,207.25204,59.360313Q201.64822,53.327499,194.80617,50.292809Q187.96411,47.255684,179.38167,47.255684Q167.61829,47.255684,158.41429,52.810745Q149.2103,58.363373,144.12323,68.098747Q139.0386,77.831688,139.0386,90.138626Q139.0386,102.57231,144.12323,112.30769Q149.2103,122.04063,158.35092,127.59569Q167.49399,133.14832,179.33536,133.14832Q191.29861,133.14832,200.00293,128.15631Q208.70967,123.16431,213.37262,113.93106Q218.03799,104.69537,218.03799,92.244629L218.03799,85.163681L223.93185,85.163681ZM221.59674,102.136L187.34012,102.136Q184.11285,102.136,182.38712,100.40294Q180.66135,98.669876,180.66135,95.42556L180.66135,91.874123Q180.66135,88.629807,182.38712,86.896744Q184.11285,85.163681,187.34012,85.163681L221.59674,85.163681L221.59674,102.136ZM337.41455,79.42337L362.00162,79.42337Q371.11053,79.42337,375.71255,75.27475Q380.31454,71.123688,380.31454,64.001312Q380.31454,59.391998,378.25485,56.147682Q376.1976,52.903374,372.12454,51.124001Q368.05392,49.34462,362.00162,49.34462L340.22253,49.34462L340.22253,32.372307L362.00162,32.372307Q372.00998,32.372307,380.19754,36.586746Q388.38754,40.798744,393.11871,48.021057Q397.84991,55.24337,397.84991,64.008621Q397.84991,72.807999,393.12115,79.640312Q388.39487,86.472626,380.25848,90.187378Q372.12454,93.899689,362.00162,93.899689L337.41455,93.899689L337.41455,79.42337ZM340.22253,131.05937L364.96561,131.05937Q371.32993,131.05937,376.25854,128.65601Q381.18961,126.25262,383.93423,122.026Q386.67886,117.79938,386.67886,112.73425Q386.67886,107.66913,383.93423,103.34256Q381.18961,99.015999,376.25854,96.459061Q371.32993,93.899689,364.96561,93.899689L339.34991,93.899689L339.34991,79.42337L364.96561,79.42337Q375.2616,79.42337,384.3096,83.791374Q393.3576,88.159378,398.78592,95.78875Q404.21423,103.41569,404.21423,112.744Q404.21423,122.07231,398.78592,130.216Q393.3576,138.35968,384.3096,143.19569Q375.2616,148.03169,364.96561,148.03169L340.22253,148.03169L340.22253,131.05937ZM336.80762,148.03169Q331.32324,148.03169,328.45673,145.16519Q325.59024,142.29869,325.59024,136.81432L325.59024,43.589684Q325.59024,38.105309,328.45673,35.238808Q331.32324,32.372307,336.80762,32.372307L343.12561,32.372307L343.12561,148.03169L336.80762,148.03169ZM436.81335,141.39682Q436.81335,144.58994,435.09003,146.31081Q433.36917,148.03169,430.17603,148.03169L426.6636,148.03169Q423.46805,148.03169,421.74716,146.31081Q420.02628,144.58994,420.02628,141.39682L420.02628,36.355186Q420.02628,33.162064,421.74716,31.441185Q423.46805,29.720306,426.6636,29.720306L430.17603,29.720306Q433.36917,29.720306,435.09003,31.441185Q436.81335,33.162064,436.81335,36.355186L436.81335,141.39682ZM496.65399,134.272Q504.29797,134.272,510.20892,130.73032Q516.12228,127.18863,519.35199,120.88769Q522.58167,114.58431,522.58167,106.63806Q522.58167,98.579681,519.36661,92.339691Q516.15399,86.099686,510.2406,82.575058Q504.32965,79.047997,496.61499,79.047997Q489.00998,79.047997,483.09662,82.575058Q477.18567,86.099686,473.95599,92.339691Q470.72629,98.579681,470.72629,106.63806Q470.72629,114.58431,474.01691,120.88769Q477.30997,127.18863,483.15997,130.73032Q489.00998,134.272,496.65399,134.272ZM496.65399,149.74768Q484.95398,149.74768,475.04797,143.89769Q465.14197,138.04768,459.35291,128.14169Q453.56628,118.23569,453.56628,106.66Q453.56628,94.928314,459.41629,85.022308Q465.2663,75.11631,475.1723,69.344315Q485.07831,63.572311,496.71246,63.572311Q508.34424,63.572311,518.26971,69.344315Q528.19769,75.11631,533.96967,85.022308Q539.7417,94.928314,539.7417,106.66Q539.7417,118.23569,533.95264,128.14169Q528.16595,138.04768,518.25998,143.89769Q508.35397,149.74768,496.65399,149.74768ZM594.55859,149.74768Q582.95367,149.74768,573.54492,143.96106Q564.13861,138.172,558.77124,128.25137Q553.40631,118.32831,553.40631,106.62831Q553.40631,94.991684,558.77124,85.085686Q564.13861,75.179688,573.54492,69.393059Q582.95367,63.603996,594.55859,63.603996Q606.1026,63.603996,614.58997,70.077995Q623.07733,76.552002,627.44537,86.521378Q631.81335,96.488312,631.81335,106.62831Q631.81335,116.83169,627.44537,126.81569Q623.07733,136.79968,614.58997,143.27368Q606.1026,149.74768,594.55859,149.74768ZM595.80658,134.64737Q603.79431,134.64737,609.90997,131.10568Q616.02563,127.564,619.39429,121.18506Q622.76538,114.80369,622.76538,106.62831Q622.76538,98.484619,619.39429,92.073997Q616.02563,85.663376,609.90997,82.121689Q603.79431,78.580002,595.80658,78.580002Q589.13031,78.580002,583.46796,82.185059Q577.80566,85.787689,574.5589,92.200745Q571.31458,98.611374,571.31458,106.62831Q571.31458,114.67937,574.5589,121.06075Q577.80566,127.43969,583.38995,131.04475Q588.9743,134.64737,595.80658,134.64737ZM557.40137,167.36349Q554.9809,165.01619,555.3197,162.62256Q555.65851,160.22894,558.30566,158.33012L561.28186,156.28506Q563.8266,154.51544,565.98621,154.88838Q568.14832,155.26375,570.51263,157.38681Q575.0318,162.42268,580.68677,164.89919Q586.34424,167.37569,594.59027,167.37569Q602.39026,167.37569,608.4743,164.05093Q614.55829,160.72862,617.97321,154.33263Q621.39062,147.93663,621.39062,139.13969L621.39062,119.04738L624.10596,106.504L621.39062,93.307373L621.39062,71.925621Q621.39062,68.681313,623.0871,66.98481Q624.78357,65.288307,628.02789,65.288307L631.54034,65.288307Q634.78467,65.288307,636.48114,66.98481Q638.17767,68.681313,638.17767,71.925621L638.17767,139.13969Q638.17767,151.86832,632.26428,161.99126Q626.35333,172.11662,616.33765,177.85693Q606.32196,183.59969,594.59027,183.59969Q582.49298,183.59969,573.328,179.24144Q564.16541,174.88562,557.40137,167.36349Z" fill="#FFFFFF" fill-opacity="0.800000011920929" style="mix-blend-mode:passthrough"/></g></g></svg>